<?xml version="1.0" encoding="UTF-8" standalone="no"?>
<!-- Created with Inkscape (http://www.inkscape.org/) -->
<svg
   xmlns:svg="http://www.w3.org/2000/svg"
   xmlns="http://www.w3.org/2000/svg"
   version="1.0"
   width="640"
   height="640"
   id="svg2">
  <defs
     id="defs4" />
  <g
     id="layer1">
    <path
       d="M 319.98437,20.329456 L 288.98437,79.016957 L 271.32812,112.14195 C 266.47653,116.46308 261.54208,120.62649 251.89062,116.5482 L 212.32812,96.516954 L 212.42187,97.07945 L 212.01562,96.860704 L 221.17187,144.8607 L 238.26562,238.26695 C 240.6339,254.21028 231.54342,262.95245 218.10937,249.9857 L 156.01562,181.4857 L 144.92187,219.1107 C 143.14563,222.42599 138.885,224.59829 132.57812,223.7982 L 55.390624,207.32945 L 78.921874,293.32945 C 80.795964,299.40437 79.381804,303.97765 76.421874,306.2982 L 44.296875,321.9857 L 175.4236,429.65765 C 180.91809,433.97344 183.88014,436.64941 182.62226,448.3745 L 171.46209,485.95001 L 300.11249,471.87911 C 305.23214,471.52831 309.50106,473.55896 309.46083,476.64009 L 301.63765,619.19059 L 338.51437,619.67054 L 329.85742,476.7887 C 329.80248,473.09509 333.06383,471.25583 338.68532,471.91304 L 469.35388,486.69528 L 459.21488,453.30577 C 456.78983,446.16986 455.78905,439.19015 461.55815,432.50644 L 595.70312,322.3607 L 563.57812,306.6732 C 560.61819,304.35265 559.20404,299.77939 561.07812,293.70445 L 584.60937,207.70445 L 507.42187,224.1732 C 501.11499,224.97329 496.85437,222.80101 495.07812,219.4857 L 483.98437,181.8607 L 421.92187,250.3607 C 408.48782,263.32745 399.3661,254.58531 401.73437,238.64195 L 422.17187,126.95445 L 427.98437,96.485707 L 388.42187,116.51695 C 378.60612,120.66465 373.66695,116.28977 368.73437,111.89195 L 319.98437,20.329456 z "
       style="opacity:1;color:black;fill:black;fill-opacity:1;fill-rule:nonzero;stroke:none;stroke-width:1;stroke-linecap:round;stroke-linejoin:miter;marker:none;marker-start:none;marker-mid:none;marker-end:none;stroke-miterlimit:4;stroke-dasharray:none;stroke-dashoffset:0;stroke-opacity:1;visibility:visible;display:inline;overflow:visible"
       id="path1882" />
  </g>
</svg>
