<?xml version="1.0" encoding="utf-8"?>
<!-- Generator: Adobe Illustrator 22.0.1, SVG Export Plug-In . SVG Version: 6.00 Build 0)  -->
<svg version="1.1" id="Layer_1" xmlns="http://www.w3.org/2000/svg" xmlns:xlink="http://www.w3.org/1999/xlink" x="0px" y="0px"
	 viewBox="0 0 360 360" style="enable-background:new 0 0 360 360;" xml:space="preserve">
<g id="yO8pyj_1_">
	<g>
		<path d="M359,180.6c0.7,96.5-79,179.4-177.5,179.4C82.1,360,1.3,279.3,1.4,180.1C1.5,79.5,85.3-0.8,186.6,2.1
			C281.6,4.9,360.1,84.5,359,180.6z M180.2,258.9c26.5,0,53-0.1,79.4,0.1c4.2,0,5.3-1.3,5.3-5.3c-0.1-39.3-0.1-78.5-0.2-117.8
			c0-2.5-1.1-5.3-2.6-7.3c-11.1-14-22.5-27.8-33.8-41.7c-4.5-5.5-8.3-5.5-12.8,0.2c-9.9,12.5-19.6,25.1-29.4,37.7
			c-3.7,4.7-7.9,4.7-11.7-0.1c-9.8-12.6-19.6-25.1-29.5-37.7c-4.3-5.4-7.8-5.8-12.2-0.7c-12.2,14.5-24,29.3-35.9,44.1
			c-1,1.2-1.1,3.4-1.1,5.1c0,39.4,0.1,78.8-0.1,118.2c0,4.3,1.4,5.3,5.4,5.2C127.5,258.9,153.8,258.9,180.2,258.9z"/>
		<path d="M262.2,198.8c-54.2,0-109.1,0-165.8,0c3-4.1,5.6-7.5,8.2-10.9c8.3-11.1,16.6-22.2,25-33.2c5.5-7.2,9.9-7.3,15.4-0.3
			c9.4,11.9,18.7,23.9,28.1,35.9c5,6.4,8.5,6.4,13.5-0.1c9.5-12.1,18.8-24.2,28.3-36.3c4.7-6,9.4-6.5,14-0.5
			c11.2,14.5,22.1,29.3,33,44C262.1,197.6,262.1,198,262.2,198.8z"/>
	</g>
</g>
</svg>
