<?xml version="1.0" encoding="utf-8"?>
<!-- Generator: Adobe Illustrator 22.0.1, SVG Export Plug-In . SVG Version: 6.00 Build 0)  -->
<svg version="1.1" id="Layer_1" xmlns="http://www.w3.org/2000/svg" xmlns:xlink="http://www.w3.org/1999/xlink" x="0px" y="0px"
	 viewBox="0 0 360 360" style="enable-background:new 0 0 360 360;" xml:space="preserve">
<style type="text/css">
	.st0{font-family:'Superclarendon-Black';}
	.st1{font-size:78.2306px;}
	.st2{letter-spacing:-4.8;}
	.st3{letter-spacing:-3;}
	.st4{font-size:78.1195px;}
</style>
<text transform="matrix(1.05 0 0 1 39.5164 96.4316)"><tspan x="0" y="0" class="st0 st1 st2">C</tspan><tspan x="56.3" y="0" class="st0 st1">ANA</tspan></text>
<text transform="matrix(1.08 0 0 1 39.5164 170.3174)" class="st0 st1">DIAN</text>
<text transform="matrix(1 -8.727334e-03 8.727334e-03 1 38.9434 244.1877)" class="st0 st1"> </text>
<text transform="matrix(1 -8.727334e-03 8.727334e-03 1 42.4638 244.156)"><tspan x="0" y="0" class="st0 st1">GR</tspan><tspan x="143.4" y="0" class="st0 st1 st3">A</tspan><tspan x="209.2" y="0" class="st0 st1">P</tspan></text>
<text transform="matrix(1 -8.727334e-03 8.727334e-03 1 39.6644 326.7959)" class="st0 st1"> </text>
<text transform="matrix(1.1 0 0 1 44.5672 317.4014)" class="st0 st4">HIC</text>
<text transform="matrix(1.05 0 0 1 238.1668 317.4014)" class="st0 st4">S</text>
</svg>
