<?xml version="1.0" encoding="utf-8"?>
<!-- Generator: Adobe Illustrator 22.0.1, SVG Export Plug-In . SVG Version: 6.00 Build 0)  -->
<svg version="1.1" id="Layer_1" xmlns="http://www.w3.org/2000/svg" xmlns:xlink="http://www.w3.org/1999/xlink" x="0px" y="0px"
	 viewBox="0 0 360 360" style="enable-background:new 0 0 360 360;" xml:space="preserve">
<g>
	<path d="M334.3,217.5c1.1,0.5,2.3,0.9,3.4,1.4c4.8-11.5,9.7-23,15.2-36.1h-18.6V217.5z M337.8,141c-1.1,0.4-2.1,0.7-3.2,1.1V177
		H353C347.4,163.8,342.6,152.4,337.8,141 M142,17.4h73.8C195.6-4.9,160.1-4.6,142,17.4 M23.2,141c-21.8,20.9-21.5,59.6,0,77.2V141z
		 M216.5,342.1H141C162.6,364.5,194.3,364.6,216.5,342.1 M328.3,183H294v24v24.5C314.9,223.5,327.4,205.5,328.3,183 M294.6,128.9
		v48.3h33.2C328.8,156.2,314.4,135.1,294.6,128.9 M237.2,59.1h47.8c-6.3-21.4-27.9-37-47.8-34.4V59.1z M328.5,118.7
		c-0.5-24-15-44.9-34-49.4v49.4H328.5z M72.2,58.9H120V24.2C98.9,23.2,79.4,37.4,72.2,58.9 M63.4,118.8V93.2V68.6
		c-20.9,6.6-35.2,28-34.2,50.2H63.4z M294,291.4c22.2-8.6,36.3-30.4,33.8-50.6h-33.3c-0.2,2.4-0.4,4.3-0.4,6.2
		C294,261.4,294,275.9,294,291.4 M72.2,299.9c6.2,21.9,28.4,38,47.8,35.4v-35.1c-2.3-0.2-3.8-0.4-5.4-0.4
		C100.7,299.9,86.9,299.9,72.2,299.9 M237.2,336.3c24.1-1.3,44.6-17.3,47.3-35.7h-47.8c0,9.2,0,17.8,0,26.3
		C236.8,329.9,237,332.8,237.2,336.3 M62.7,240.2c-10.7,0-20.4,0-30.2,0c-1.2,0-2.4,0.5-3.5,0.7c-0.4,23.2,15.6,46.4,34.4,49.5
		c0-15.2,0-30.3,0-45.4C63.4,243.8,63.1,242.5,62.7,240.2 M237.2,234.9c27.6,0.6,52-24.2,51.2-52.5c-10,0-20-0.1-30.1,0.1
		c-1.5,0-3.3,1.3-4.4,2.5c-5.2,5.5-10.2,11.3-16.7,18.4V234.9z M237.4,125.4v31.1c6.5,7.1,11.4,12.6,16.5,18
		c1.2,1.3,2.7,3.1,4.1,3.1c10.3,0.3,20.6,0.1,30.9,0.1C287.6,147.3,264,123.6,237.4,125.4 M237.4,64.7v32
		c7.6,8.1,13.7,14.4,20.6,21.8h31.4C287.3,87.2,266.9,66.1,237.4,64.7 M68.1,119.3c10.5,0,20.2,0.1,30-0.1c1.7,0,4.6-1.5,5-2.9
		c2.5-9.3,8.7-14.1,16.8-15.8V64.6C89.9,66.7,69.2,88.3,68.1,119.3 M259.7,240.7c-8.3,7.5-14,12.5-19.4,17.7
		c-1.4,1.4-3.2,3.3-3.3,5.1c-0.3,10.4-0.2,20.9-0.2,31.3c28.9,0.4,52.6-24.6,52.3-54.1H259.7z M120.6,294.5
		c0-10.4,0.1-20.9-0.1-31.4c0-1.5-1.6-3.3-2.8-4.4c-5.8-5.3-11.7-10.4-20-17.7H68.2C69,271.6,93.3,296.5,120.6,294.5 M129.7,59.6
		h49.1h49.1c-6.8-22-26.9-36.3-49.2-36.3C156.2,23.3,136,37.9,129.7,59.6 M62.7,231.4V128.7c-20.1,7-34,27.4-34.5,50.2
		C27.7,201.7,41.1,222.6,62.7,231.4 M227.8,300.6h-98.1c6.4,21.2,26.7,36,48.9,36.1C200.7,336.7,221.2,321.9,227.8,300.6
		 M231.5,118.7c-0.3-30.2-23.6-54.2-52.3-54.6c-28.8-0.4-52.4,23.4-53.5,54.6h34.1c2.5-9.7,7.3-17.1,17.8-17.7
		c11.9-0.6,17.1,7.8,20.2,17.7H231.5z M120.2,125.5c-26.9-2.5-51.9,23.4-52.4,53.6c-0.5,30.7,24.5,57.3,52.5,55.6v-35.2
		c-9.5-2.4-16.1-7.5-17-17.9c-1.1-13,7.5-18.4,16.9-21.8V125.5z M125.6,240.6c2,33.9,26.4,56.7,57.4,54.6
		c27.2-1.8,50-27.4,48.2-54.6h-33.6c-2.3,10.3-7.6,17.9-19,18c-11.5,0.1-16.3-8.1-19-18H125.6z M230.9,177.8
		c0.9-29.1-23.2-53.3-52.2-53.5c-29.4-0.2-54,25.6-53.6,56.2c0.4,31.2,26,56.5,55.6,55.2c27.9-1.2,51.5-26,50-52.8h-33
		c-0.7,1.3-1.3,2.4-1.9,3.6c-5.1,10-12.6,14.4-21.4,11.9c-8.5-2.4-13.4-8.5-13.9-17.8c-0.5-8.8,5.3-16.7,13.6-19.2
		c8.3-2.4,16,1.8,21.6,11.6c1.1,2,3.3,4.5,5.1,4.6C210.9,178,220.9,177.8,230.9,177.8"/>
	<path d="M230.9,177.8c-9.9,0-20,0.2-30-0.2c-1.8-0.1-4-2.6-5.1-4.6c-5.7-9.8-13.4-14.1-21.6-11.6c-8.3,2.4-14.1,10.4-13.6,19.2
		c0.5,9.3,5.4,15.4,13.9,17.8c8.8,2.5,16.3-1.9,21.4-11.9c0.6-1.2,1.2-2.3,1.9-3.6h33c1.5,26.8-22.1,51.6-50,52.8
		c-29.7,1.3-55.2-24-55.6-55.2c-0.4-30.6,24.2-56.4,53.6-56.2C207.6,124.5,231.8,148.7,230.9,177.8"/>
	<path d="M125.6,240.6h34c2.7,9.9,7.5,18.1,19,18c11.3-0.1,16.7-7.7,19-18h33.6c1.8,27.2-21,52.8-48.2,54.6
		C152,297.3,127.6,274.5,125.6,240.6"/>
	<path d="M120.2,125.5v34.2c-9.5,3.5-18.1,8.8-16.9,21.8c0.9,10.4,7.5,15.4,17,17.9v35.2c-27.9,1.8-52.9-24.9-52.5-55.6
		C68.2,148.9,93.2,123,120.2,125.5"/>
	<path d="M231.5,118.7h-33.7c-3.1-9.9-8.3-18.3-20.2-17.7c-10.5,0.6-15.3,8-17.8,17.7h-34.1c1.1-31.2,24.7-54.9,53.5-54.6
		C207.9,64.5,231.2,88.5,231.5,118.7"/>
	<path d="M227.8,300.6c-6.5,21.3-27,36.2-49.1,36.1c-22.2-0.1-42.6-14.9-48.9-36.1H227.8z"/>
	<path d="M62.7,231.4c-21.6-8.8-35.1-29.7-34.5-52.6c0.6-22.8,14.4-43.2,34.5-50.2V231.4z"/>
	<path d="M129.7,59.6c6.3-21.7,26.5-36.2,48.9-36.3c22.3-0.1,42.4,14.3,49.2,36.3h-49.1H129.7z"/>
	<path d="M120.6,294.5c-27.4,2-51.7-22.9-52.4-53.5h29.5c8.3,7.3,14.2,12.4,20,17.7c1.3,1.2,2.8,2.9,2.8,4.4
		C120.8,273.5,120.6,284.1,120.6,294.5"/>
	<path d="M259.7,240.7H289c0.4,29.5-23.3,54.5-52.2,54.1c0-10.4-0.2-20.9,0.2-31.3c0.1-1.7,1.9-3.7,3.3-5.1
		C245.7,253.2,251.4,248.2,259.7,240.7"/>
	<path d="M68.1,119.3c1-31,21.7-52.7,51.8-54.7v35.8c-8.1,1.7-14.3,6.6-16.8,15.8c-0.4,1.4-3.2,2.9-5,2.9
		C88.4,119.5,78.6,119.3,68.1,119.3"/>
	<path d="M237.4,64.7c29.5,1.4,50,22.5,52,53.8H258c-6.9-7.3-13-13.7-20.6-21.8V64.7z"/>
	<path d="M237.4,125.4c26.6-1.8,50.3,21.9,51.5,52.4c-10.3,0-20.6,0.1-30.9-0.1c-1.4,0-2.9-1.8-4.1-3.1c-5-5.4-10-10.9-16.5-18
		V125.4z"/>
	<path d="M237.2,234.9v-31.5c6.5-7.2,11.5-12.9,16.7-18.4c1.1-1.2,2.9-2.5,4.4-2.5c10-0.2,20.1-0.1,30.1-0.1
		C289.2,210.8,264.9,235.5,237.2,234.9"/>
	<path d="M62.7,240.2c0.3,2.3,0.6,3.6,0.6,4.8c0,15.1,0,30.2,0,45.4C44.6,287.3,28.6,264.2,29,241c1.1-0.2,2.3-0.7,3.5-0.7
		C42.3,240.2,52.1,240.2,62.7,240.2"/>
	<path d="M237.2,336.3c-0.2-3.5-0.4-6.4-0.5-9.3c-0.1-8.5,0-17.1,0-26.3h47.8C281.9,319,261.3,335,237.2,336.3"/>
	<path d="M72.2,300c14.7,0,28.5,0,42.4,0c1.5,0,3.1,0.2,5.4,0.4v35.1C100.6,337.9,78.4,321.9,72.2,300"/>
	<path d="M294,291.4c0-15.4,0-29.9,0-44.4c0-1.9,0.3-3.8,0.4-6.2h33.3C330.3,261,316.2,282.8,294,291.4"/>
	<path d="M63.4,118.8H29.3c-1-22.2,13.3-43.6,34.2-50.2v24.5V118.8z"/>
	<path d="M72.2,58.9c7.2-21.5,26.6-35.6,47.8-34.7v34.7H72.2z"/>
	<path d="M328.5,118.7h-34V69.3C313.5,73.8,328,94.7,328.5,118.7"/>
	<path d="M237.2,59.1V24.7c19.9-2.7,41.5,12.9,47.8,34.4H237.2z"/>
	<path d="M294.6,128.9c19.8,6.1,34.3,27.2,33.2,48.3h-33.2V128.9z"/>
	<path d="M328.3,183c-0.9,22.5-13.4,40.5-34.3,48.5V207v-24H328.3z"/>
	<path d="M216.5,342.1c-22.3,22.5-53.9,22.4-75.5,0H216.5z"/>
	<path d="M23.2,141v77.2C1.7,200.6,1.4,162,23.2,141"/>
	<path d="M142,17.4c18.2-22,53.6-22.3,73.8,0H142z"/>
	<path d="M337.8,141c4.8,11.4,9.6,22.7,15.2,35.9h-18.4v-34.8C335.7,141.8,336.7,141.4,337.8,141"/>
	<path d="M334.3,217.5v-34.6h18.6c-5.5,13.1-10.3,24.6-15.2,36C336.6,218.5,335.4,218,334.3,217.5"/>
</g>
</svg>
