<?xml version="1.0" encoding="utf-8"?>
<!-- Generator: Adobe Illustrator 22.0.1, SVG Export Plug-In . SVG Version: 6.00 Build 0)  -->
<svg version="1.1" id="Layer_1" xmlns="http://www.w3.org/2000/svg" xmlns:xlink="http://www.w3.org/1999/xlink" x="0px" y="0px"
	 viewBox="0 0 360 360" style="enable-background:new 0 0 360 360;" xml:space="preserve">
<style type="text/css">
	.st0{fill:#FFFFFF;}
</style>
<g id="PivVLV_1_">
	<g>
		<path class="st0" d="M333,108.8c0,1-0.1,1.7-0.1,2.5c0,31.8,0,63.6,0,95.4c0,4.8-1.9,7.9-5.7,9.4c-3.6,1.4-7.2,0.4-10.3-3.1
			c-5.3-5.9-10.7-11.8-16-17.8c-22.4-25-44.8-50-67.3-74.9c-8.5-9.4-19.4-13.1-31.8-11.2c-18.2,2.7-30.8,17.6-30.8,36.1
			c0,20.4-0.1,40.8,0.1,61.2c0.1,7.3-5,10.4-10.3,10.4c-41.1-0.1-82.3,0-123.4,0c-6.5,0-10.1-3.4-10.1-10c-0.1-20.4-0.1-40.8,0-61.2
			c0-6.5,3.5-9.6,10-9.6c34.5,0,69.1,0,103.6,0c1,0,2,0,3.1,0c0-9.2,0-18.2,0-27.2c-1.1,0-1.9,0-2.8,0c-35.1,0-70.1,0-105.2,0
			c-20.1,0-36,15.9-36,36.1c0,21.1,0,42.2,0,63.3c0,19.6,15.9,35.8,35.5,35.8c42.3,0.1,84.7,0.1,127,0c18.8,0,34.6-15.1,35.4-33.8
			c0.4-9.5,0.1-19,0.1-28.5c0-12,0-24,0-36c0-2.8,0.7-5.3,2.8-7.2c4-3.7,9.4-3.3,13.4,1.2c27.4,30.5,54.8,61.1,82.1,91.6
			c9,10,20.1,14.2,33.4,12.3c17-2.4,30.1-17.7,30.1-34.8c0-32.2,0-64.5,0-96.7c0-1,0-2,0-3.1C350.9,108.8,342.1,108.8,333,108.8z"/>
		<path d="M333,108.8c9.1,0,17.9,0,27,0c0,1.1,0,2.1,0,3.1c0,32.2,0,64.5,0,96.7c0,17.1-13.2,32.4-30.1,34.8
			c-13.3,1.9-24.4-2.3-33.4-12.3c-27.4-30.5-54.8-61.1-82.1-91.6c-4-4.4-9.3-4.9-13.4-1.2c-2.1,1.9-2.8,4.4-2.8,7.2c0,12,0,24,0,36
			c0,9.5,0.3,19-0.1,28.5c-0.8,18.7-16.7,33.8-35.4,33.8c-42.3,0.1-84.7,0.1-127,0C15.9,243.8,0,227.6,0,208c0-21.1,0-42.2,0-63.3
			c0-20.2,15.9-36.1,36-36.1c35.1,0,70.1,0,105.2,0c0.8,0,1.7,0,2.8,0c0,9.1,0,18,0,27.2c-1.1,0-2.1,0-3.1,0c-34.5,0-69.1,0-103.6,0
			c-6.6,0-10,3.1-10,9.6c-0.1,20.4-0.1,40.8,0,61.2c0,6.6,3.6,10,10.1,10c41.1,0,82.3,0,123.4,0c5.3,0,10.4-3.1,10.3-10.4
			c-0.2-20.4-0.1-40.8-0.1-61.2c0-18.5,12.6-33.4,30.8-36.1c12.4-1.9,23.4,1.9,31.8,11.2c22.5,24.9,44.9,49.9,67.3,74.9
			c5.3,5.9,10.6,11.9,16,17.8c3.2,3.5,6.7,4.5,10.3,3.1c3.9-1.5,5.7-4.6,5.7-9.4c0-31.8,0-63.6,0-95.4
			C332.9,110.5,333,109.8,333,108.8z"/>
	</g>
</g>
</svg>
