<?xml version="1.0" encoding="utf-8"?>
<!-- Generator: Adobe Illustrator 22.0.1, SVG Export Plug-In . SVG Version: 6.00 Build 0)  -->
<svg version="1.1" id="Layer_1" xmlns="http://www.w3.org/2000/svg" xmlns:xlink="http://www.w3.org/1999/xlink" x="0px" y="0px"
	 viewBox="0 0 360 360" style="enable-background:new 0 0 360 360;" xml:space="preserve">
<g id="KYJ26w_1_">
	<g>
		<path d="M88.9,273.2c-5.5,4.7-10.2,8.8-15,12.9c-19.4,16.7-43.2,16-59.9-1.8c-16.4-17.5-17.6-46.7-2.5-65.3
			c2.7-3.4,5.8-6.5,8.7-9.8c-17.5-26.6-17.6-53,0.3-80.3c-2.2-1.9-4.5-3.7-6.5-5.7C-2.8,106.4-4.8,77.7,9.6,59.5
			c16-20.3,40.9-23.8,61.2-8.4c5,3.8,9.3,8.6,14.4,12.2c1.7,1.2,5.2,1.2,7,0.2c4.1-2.4,7.4-6.2,11.4-8.9c21.5-14.6,45-13.3,64.9,3.4
			c2.8,2.3,5.5,4.8,8.6,7.5c2.7-2.2,5.4-4.3,7.8-6.5c22.7-20.5,51.2-20.8,74.3-0.9c7.9,6.8,7.9,6.8,15.6-0.2
			c2.9-2.6,5.8-5.1,8.6-7.8c18.3-17.7,47.2-14.1,62,2.4c15.4,17.2,17.5,46.8,1.6,64.6c-7.6,8.4-7.7,14.2-3,23.9
			c9.9,20.2,9.1,40.9-2.5,60.4c-3.4,5.7-2.3,8.6,2.1,12.8c26.2,25.1,19.8,68.5-12.2,82c-17.4,7.3-33.7,3.4-48.2-8.8
			c-5.2-4.3-10.1-9-15.7-14c-12.4,12.9-26.8,20.7-44.4,21.3c-18.1,0.6-31.8-8.8-44.7-21.3c-12.9,12.3-26.7,21.7-45,21.5
			C115.5,294.7,102.1,285,88.9,273.2z M178.6,147.5c6.7-6.4,12.7-12.1,19.3-18.4c-6.3-5.7-11.4-10.8-17-15.3c-1.4-1.1-4.8-1.4-6-0.3
			c-5.6,4.8-10.8,10.1-16.6,15.7C165.3,135.6,171.6,141.2,178.6,147.5z M69.5,209.9c6.3,5.8,11.5,10.8,17.1,15.4
			c1.2,1,4.3,1.1,5.4,0.2c5.8-4.7,11.2-9.8,17.5-15.5c-7-6.4-13.4-12.2-20.2-18.4C82.7,197.7,76.6,203.4,69.5,209.9z M109.4,129.6
			c-7.1-6.4-13.1-11.9-19.7-17.9c-6.6,6-12.8,11.6-19.6,17.9c7,6.3,13.2,11.9,19.8,17.8C96.4,141.5,102.4,136,109.4,129.6z
			 M287.2,128.2c-7.1-6.3-13.4-11.8-20-17.6c-6.6,6.2-12.7,11.9-19.3,18.1c7,6.2,13,11.6,19.5,17.4C274,140.3,280,134.8,287.2,128.2
			z M242.9,168.9c-6.1-5.4-11-10-16.3-14.2c-1.3-1.1-4.4-1.7-5.4-0.8c-5.9,4.8-11.4,10.1-17.7,15.8c6.1,5.4,11.2,10.3,16.7,14.5
			c1.3,1,4.7,1.1,5.9,0.1C231.6,179.7,236.8,174.6,242.9,168.9z M268.2,191.7c-6.7,6.3-12.8,12.1-19.4,18.4
			c5.9,5.3,10.9,10.2,16.3,14.6c1.1,0.9,3.9,1.2,4.8,0.4c5.8-4.9,11.4-10.2,17.6-15.8C280.7,203.1,274.8,197.7,268.2,191.7z
			 M152.4,169c-5.5-4.9-10.9-10-16.6-14.7c-1-0.8-3.8-0.8-4.8,0.1c-5.5,4.6-10.6,9.5-15.8,14.3c15.2,19.9,21.2,20.1,36.5,2.4
			C151.8,170.9,151.8,170.6,152.4,169z M292.2,87.1c6.5,5.8,12.2,11,18.1,15.9c0.7,0.6,2.7,0.9,3.2,0.4c4.1-4.3,8.9-8.3,11.9-13.4
			c3.1-5.3,0.7-10.6-3.7-14.5c-4.5-4-9.7-4.9-14.5-1.4C302.1,77.7,297.7,82.2,292.2,87.1z M292.9,250c5.5,4.6,9.9,9.2,15.1,12.4
			c8.9,5.3,19.2-0.6,19.3-10.4c0.1-5.8-8.4-17.3-13.8-18.4c-1-0.2-2.4,0.2-3.2,0.8C304.8,239.3,299.3,244.3,292.9,250z M159.6,209.9
			c6,5.6,11.2,10.7,16.6,15.4c0.9,0.8,3.5,1.1,4.3,0.4c5.7-5,11.2-10.2,17.2-15.8c-7.2-6.3-13.3-11.7-19.5-17.3
			C171.9,198.5,166.2,203.8,159.6,209.9z M65,89.1c-8-5.8-12.5-15.8-22.7-13.2c-4.1,1-9.2,6.4-10.1,10.7
			c-2.3,10.5,7.3,14.2,13.2,20.9C51.9,101.3,58,95.6,65,89.1z M64.3,249.7c-5.8-5.4-10.8-10.2-16.1-14.7c-1.2-1-4-1.8-4.9-1.1
			c-3.5,2.9-7,6-9.4,9.8c-3.3,5.2-1.5,13.1,2.8,16.8c4.7,4.1,11.3,4.2,16.3-0.1C56.6,257.3,59.9,253.9,64.3,249.7z M203.2,88.8
			c6.6,5.9,12.8,11.5,19.5,17.4c6.5-6.2,12.6-12,18.5-17.6C231.8,74.4,214.2,74.5,203.2,88.8z M242,249.8
			c-6.1-5.5-12.3-11.1-18.8-17.1c-6.7,6.2-12.8,11.9-19,17.5C214.9,264.2,232.4,264,242,249.8z M152.2,89.7
			C141.3,75.5,123.1,75.8,115,90c5.1,4.6,10.1,9.6,15.6,13.9c1.4,1.1,5,1,6.4-0.2C142.2,99.5,147,94.6,152.2,89.7z M115,249.8
			c10.4,14.1,28.9,13.6,37.7-0.6c-5.9-5.3-12-10.8-18.1-16.3C127.7,238.8,121.5,244.2,115,249.8z M45.9,187.2
			c6.4-5.9,12.4-11.5,19-17.6c-4.2-3.8-7.1-6.6-10.2-9.3c-3-2.7-6.2-5.2-9.2-7.8C36.1,162.5,36.1,176.5,45.9,187.2z M312,152.2
			c-6.1,5.4-12.2,10.9-19.2,17.1c7,6,12.8,11.1,18.7,16.2C320.6,174.6,320.7,161,312,152.2z"/>
	</g>
</g>
</svg>
