<?xml version="1.0" encoding="utf-8"?>
<!-- Generator: Adobe Illustrator 22.0.1, SVG Export Plug-In . SVG Version: 6.00 Build 0)  -->
<svg version="1.1" id="Layer_1" xmlns="http://www.w3.org/2000/svg" xmlns:xlink="http://www.w3.org/1999/xlink" x="0px" y="0px"
	 viewBox="0 0 360 360" style="enable-background:new 0 0 360 360;" xml:space="preserve">
<style type="text/css">
	.st0{stroke:#000000;stroke-miterlimit:10;}
</style>
<g id="xupyV4.tif">
	<g>
		<path class="st0" d="M357.8,217.1c-57.2,0-114.5,0-171.8,0c7.7,45.8,47.7,76.4,94.4,72.7C324.5,286.4,355.3,248.7,357.8,217.1z
			 M96.7,216.3c0,24.4-0.1,47.5,0.2,70.7c0,1.2,3.1,3.3,4.7,3.3c22.4,0.2,44.7,0,67.1,0.2c5.2,0,6.4-2.1,6.4-6.9
			c-0.2-20.2-0.2-40.4,0-60.7c0.1-5-1.4-6.8-6.5-6.7c-13.5,0.3-27.1,0.1-40.7,0.1C117.8,216.3,107.7,216.3,96.7,216.3z"/>
		<path class="st0" d="M360,206.2c-20.9,0.1-41.7,0.3-62.6,0.3c-35.3,0-70.6-0.1-105.8,0.1c-4.9,0-7.4-0.8-7.1-6.7
			c1.6-38.3,25.3-67.6,56.5-79.8c6.6-2.6,13.8-3.8,20.7-5.7c6.9,0,13.8,0,20.7,0c1.1,0.5,2.3,1.2,3.5,1.4
			c33.6,5.4,55.9,24.9,68.4,56c2.7,6.8,3.9,14.3,5.8,21.5C360,197.6,360,201.9,360,206.2z"/>
		<path class="st0" d="M87.2,114.4c0,58.3,0,116.6,0,175.4c-22.4,0.5-40.9-7-56.8-20.9C-17.1,227.4-7.4,151.5,49,123.4
			c7.2-3.6,15.4-5,23.2-7.4c1.5-0.5,3.1-1.1,4.6-1.6C80.3,114.4,83.7,114.4,87.2,114.4z"/>
		<path class="st0" d="M97.5,114.4c6.6,1.7,13.3,3,19.7,5.2c34.2,11.7,57.8,45.2,57.8,81.4c0,3.8-1,5.5-5.1,5.5
			c-22.8-0.1-45.7-0.1-68.5,0c-4.9,0-4.9-2.7-4.8-6.3c0.1-26.1,0-52.1,0-78.2c0-2.6-0.3-5.1-0.4-7.7
			C96.6,114.4,97.1,114.4,97.5,114.4z"/>
		<path class="st0" d="M357.8,217.1c-2.5,31.6-33.3,69.3-77.4,72.7c-46.8,3.6-86.8-26.9-94.4-72.7
			C243.3,217.1,300.6,217.1,357.8,217.1z"/>
		<path class="st0" d="M96.7,216.3c11,0,21.1,0,31.2,0c13.6,0,27.1,0.2,40.7-0.1c5.1-0.1,6.6,1.7,6.5,6.7c-0.2,20.2-0.2,40.4,0,60.7
			c0.1,4.8-1.1,7-6.4,6.9c-22.4-0.2-44.7,0-67.1-0.2c-1.7,0-4.7-2.1-4.7-3.3C96.6,263.9,96.7,240.7,96.7,216.3z"/>
	</g>
</g>
</svg>
