<?xml version="1.0" encoding="utf-8"?>
<!-- Generator: Adobe Illustrator 22.0.1, SVG Export Plug-In . SVG Version: 6.00 Build 0)  -->
<svg version="1.1" id="Layer_1" xmlns="http://www.w3.org/2000/svg" xmlns:xlink="http://www.w3.org/1999/xlink" x="0px" y="0px"
	 viewBox="0 0 360 360" style="enable-background:new 0 0 360 360;" xml:space="preserve">
<g id="TsVy1N.tif">
	<g>
		<path d="M0,184.8c0-3.2,0-6.4,0-9.6c0.1-0.4,0.2-0.9,0.3-1.3c0.3-3.5,0.5-7.1,0.8-10.6c0.5-6.5,1.5-12.9,2.8-19.3
			c2.8-14,7.3-27.5,13.4-40.4c12.2-25.9,29.5-47.6,52-65.3c21.3-16.7,45.3-28.1,71.8-34c6.9-1.6,14-2.7,21.1-3.4
			c4-0.3,7.9-0.6,11.9-0.8c0.4,0,0.9-0.1,1.3-0.2c3.3,0,6.5,0,9.8,0c0.2,0.1,0.4,0.2,0.6,0.2c2,0.1,4.1,0.2,6.1,0.3
			c5.4,0.3,10.8,0.9,16.1,1.7C218,3.8,228,6.1,237.7,9.5c32.9,11.2,60.4,30.3,82.4,57.3c16.7,20.5,28.2,43.6,34.7,69.3
			c2.7,10.8,4.6,21.8,5,33c0,0.5,0.1,0.9,0.2,1.4c0,6.5,0,12.9,0,19.4c-0.1,0.3-0.2,0.5-0.2,0.8c-0.1,1.3,0,2.6-0.1,3.8
			c-0.5,5.7-1.2,11.3-2.1,17c-2.1,11.9-5.3,23.5-9.8,34.8c-10.5,26.5-26.4,49.3-47.6,68.2c-22.1,19.7-47.6,33.2-76.4,40.4
			c-10.9,2.7-21.9,4.4-33.1,5c-0.4,0-0.9,0.1-1.3,0.2c-6,0-12,0-18.1,0c-0.4-0.1-0.8-0.2-1.2-0.2c-3.3-0.3-6.5-0.5-9.8-0.8
			c-7.4-0.7-14.7-2-21.9-3.8c-18.3-4.4-35.5-11.4-51.5-21.2c-23.2-14.2-42.4-32.6-57.2-55.3c-17.8-27.3-27.5-57.3-29.1-89.8
			C0.4,187.5,0.2,186.1,0,184.8z M320.5,267.2c-0.1-0.1-0.1-0.1-0.2-0.2c-0.4,0.2-0.9,0.4-1.3,0.6c-4.1,2-8.2,3.9-12.5,5.4
			c-5.8,2.1-11.7,3.6-17.9,3.9c-4.5,0.2-9-0.2-13.4-1.5c-7.5-2.3-13.5-6.9-18.4-12.9c-4-4.8-6.3-10.4-7.1-16.6
			c-0.6-5.1-0.1-10.2,0.9-15.3c1.3-6.4,3.5-12.6,6.1-18.6c3.7-8.8,8.1-17.3,12.8-25.6c4.9-8.8,9.9-17.6,14.1-26.8
			c4.7-10.3,8.7-20.9,11.2-32c2.2-9.7,3.2-19.5,2-29.5c-0.8-6.2-2.3-12.2-5-17.9c-4.5-9.5-11.3-17-19.8-22.9
			c-7.2-5.1-15.1-8.7-23.3-11.6c-12.2-4.2-24.9-6.5-37.7-8c-7.8-0.9-15.7-1.3-23.6-1.5c-10.8-0.3-21.5,0.2-32.2,1.2
			c-8.4,0.8-16.7,2-24.9,3.8c-10,2.2-19.7,5.2-28.9,9.8c-8.1,4-15.4,9-21.5,15.7c-6,6.6-10.2,14.2-12.5,22.8
			c-2.7,9.8-2.8,19.7-1.5,29.6c0.9,6.8,2.5,13.5,4.5,20c3.7,11.9,8.8,23.3,14.6,34.3c3.8,7.1,7.8,14.1,11.6,21.2
			c4.5,8.5,8.7,17.1,11.8,26.2c2.1,6.3,3.7,12.7,3.9,19.4c0.2,6.7-1.3,13-4.8,18.7c-2.4,3.8-5.4,7-8.8,9.8c-6.5,5.3-13.9,8-22.2,8.2
			c-5.9,0.1-11.5-0.9-17.1-2.6c-5.8-1.7-11.4-4.1-16.8-6.7c-0.4-0.2-0.8-0.4-1.3-0.6c0.1,0.6,0.3,0.9,0.5,1.3
			c2.8,4.4,5.8,8.7,9.1,12.7c6.1,7.4,13.1,13.7,21.4,18.6c8.4,5,17.5,7.9,27.3,8.5c8.6,0.5,16.9-0.9,25-3.8
			c8.3-3,15.9-7.4,22.9-12.6c4.5-3.3,8.5-7,11.9-11.4c7.5-9.7,10-20.8,9.2-32.8c-0.4-5.8-1.5-11.5-3-17.1c-2-7.4-4.6-14.6-7.4-21.7
			c-4.4-11.2-8.9-22.4-13.2-33.7c-4.3-11.1-8.1-22.3-11.2-33.7c-2.7-10-4.8-20.1-5.3-30.5c-0.3-5.5,0.1-11,1.2-16.4
			c1.2-5.7,3.4-10.9,6.9-15.5c4.1-5.4,9.5-9.1,15.8-11.8c8.4-3.5,17.3-4.9,26.4-5.3c5.6-0.3,11.2,0.4,16.8,1.3
			c6.4,1.1,12.5,2.9,18.1,6.1c5.6,3.1,10.2,7.3,13.5,12.8c3.6,6,5.2,12.5,5.8,19.4c0.5,5.8,0.2,11.7-0.6,17.5
			c-1,8.3-2.9,16.4-5.2,24.4c-4,14.1-9,27.7-14.3,41.3c-4.1,10.6-8.4,21.2-12.4,31.9c-3.8,10.1-6.7,20.4-7.4,31.2
			c-0.4,5.5,0,11,1.3,16.3c2,8,6.1,14.8,11.8,20.8c4.1,4.2,8.7,7.6,13.6,10.8c9.9,6.4,20.6,10.9,32.5,12.2
			c6.1,0.7,12.1,0.4,18.1-0.8c10-2,18.9-6.5,27-12.8c8.6-6.7,15.6-15,21.5-24.1C319.3,269.2,319.9,268.2,320.5,267.2z"/>
	</g>
</g>
</svg>
