<?xml version="1.0" encoding="utf-8"?>
<!-- Generator: Adobe Illustrator 22.0.1, SVG Export Plug-In . SVG Version: 6.00 Build 0)  -->
<svg version="1.1" id="Layer_1" xmlns="http://www.w3.org/2000/svg" xmlns:xlink="http://www.w3.org/1999/xlink" x="0px" y="0px"
	 viewBox="0 0 864 216" style="enable-background:new 0 0 864 216;" xml:space="preserve">
<g>
	<path d="M303.8,134c-1.2,2.1-3,3.9-4.8,5.7c-2.1,1.8-4.2,3.3-6.6,4.5c-2.4,1.2-5.1,2.4-8.1,3s-6,1.2-9.3,1.2
		c-5.7,0-11.4-0.9-16.2-3c-5.1-2.1-9.3-4.8-12.9-8.7c-3.6-3.6-6.6-8.1-8.7-12.9c-2.1-5.1-3-10.5-3-16.5s0.9-11.4,3-16.5
		c2.1-5.1,4.8-9.3,8.7-12.9c3.6-3.6,8.1-6.6,12.9-8.7c5.1-2.1,10.5-3,16.2-3c4.8,0,9.9,0.9,14.7,3s9,5.1,12.6,9.6l-6.9,5.1
		c-0.9-1.2-1.8-2.4-3.3-3.9c-1.5-1.2-3-2.4-4.8-3.3c-1.8-0.9-3.9-1.8-5.7-2.4c-2.1-0.6-4.2-0.9-6.3-0.9c-5.1,0-9.6,0.9-13.5,2.7
		c-3.9,1.8-7.5,4.2-10.2,7.5c-2.7,3-4.8,6.6-6.3,10.8s-2.1,8.4-2.1,12.9s0.6,8.7,2.1,12.9c0.6,3.9,2.7,7.5,5.7,10.5
		c2.7,3,6.3,5.7,10.2,7.5c3.9,1.8,8.4,2.7,13.5,2.7c2.1,0,4.2-0.3,6.3-0.6c2.1-0.3,3.9-0.9,6-1.8c2.1-0.9,3.9-2.1,5.7-3.6
		s3.3-3.3,4.8-5.7L303.8,134z"/>
	<path d="M393.8,107c0,6-0.9,11.4-3,16.5c-2.1,5.1-4.8,9.3-8.7,12.9c-3.6,3.6-8.1,6.6-12.9,8.7c-5.1,2.1-10.5,3-16.2,3
		c-5.7,0-11.4-0.9-16.2-3c-5.1-2.1-9.3-4.8-12.9-8.7c-3.6-3.6-6.6-8.1-8.7-12.9c-2.1-5.1-3-10.5-3-16.5s0.9-11.4,3-16.5
		c2.1-5.1,4.8-9.3,8.7-12.9c3.6-3.6,8.1-6.6,12.9-8.7c5.1-2.1,10.5-3,16.2-3c5.7,0,11.4,0.9,16.2,3c5.1,2.1,9.3,4.8,12.9,8.7
		c3.6,3.6,6.6,8.1,8.7,12.9C392.6,95.6,393.8,101,393.8,107z M385.1,107c0-4.5-0.6-8.7-2.1-12.9c-1.5-4.2-3.6-7.8-6.3-10.8
		s-6.3-5.7-10.2-7.5c-3.9-1.8-8.4-2.7-13.5-2.7c-5.1,0-9.6,0.9-13.5,2.7c-3.9,1.8-7.5,4.2-10.2,7.5c-2.7,3-4.8,6.6-6.3,10.8
		s-2.1,8.4-2.1,12.9s0.6,8.7,2.1,12.9c1.5,4.2,3.6,7.8,6.3,10.8c2.7,3,6.3,5.7,10.2,7.5c3.9,1.8,8.4,2.7,13.5,2.7
		c5.1,0,9.6-0.9,13.5-2.7c3.9-1.8,7.5-4.2,10.2-7.5c2.7-3,4.8-6.6,6.3-10.8C384.2,116,385.1,111.5,385.1,107z"/>
	<path d="M417.8,139.1h36.6v7.2h-44.7V67.7h8.1V139.1z"/>
	<path d="M541.7,107c0,6-0.9,11.4-3,16.5s-4.8,9.3-8.7,12.9c-3.6,3.6-8.1,6.6-12.9,8.7c-5.1,2.1-10.5,3-16.2,3s-11.4-0.9-16.2-3
		c-5.1-2.1-9.3-4.8-12.9-8.7c-3.6-3.6-6.6-8.1-8.7-12.9c-2.1-5.1-3-10.5-3-16.5s0.9-11.4,3-16.5c2.1-5.1,4.8-9.3,8.7-12.9
		c3.6-3.6,8.1-6.6,12.9-8.7c5.1-2.1,10.5-3,16.2-3s11.4,0.9,16.2,3c5.1,2.1,9.3,4.8,12.9,8.7c3.6,3.6,6.6,8.1,8.7,12.9
		C540.8,95.6,541.7,101,541.7,107z M533,107c0-4.5-0.6-8.7-2.1-12.9c-1.5-4.2-3.6-7.8-6.3-10.8s-6.3-5.7-10.2-7.5
		c-3.9-1.8-8.4-2.7-13.5-2.7s-9.6,0.9-13.5,2.7s-7.5,4.2-10.2,7.5c-2.7,3-4.8,6.6-6.3,10.8s-2.1,8.4-2.1,12.9s0.6,8.7,2.1,12.9
		c1.5,4.2,3.6,7.8,6.3,10.8c2.7,3,6.3,5.7,10.2,7.5c3.9,1.8,8.4,2.7,13.5,2.7s9.6-0.9,13.5-2.7c3.9-1.8,7.5-4.2,10.2-7.5
		c2.7-3,4.8-6.6,6.3-10.8C532.4,116,533,111.5,533,107z"/>
	<path d="M565.7,146.3h-8.1V67.7h24.3c8.1,0,14.4,1.8,18.9,5.1c4.5,3.6,6.9,8.7,6.9,15.9c0,5.4-1.8,10.2-5.1,13.8
		c-3.3,3.6-8.4,6-15,6.6l22.5,37.2h-9.9l-21.6-36.6h-13.2v36.6H565.7z M565.7,102.5h14.1c3.6,0,6.6-0.3,9-1.2c2.4-0.6,4.5-1.8,6-3
		c1.5-1.2,2.7-2.7,3.3-4.2c0.6-1.5,0.9-3.6,0.9-5.4c0-1.8-0.3-3.6-0.9-5.4c-0.6-1.8-1.8-3-3.3-4.5c-1.5-1.2-3.6-2.1-6-3
		c-2.4-0.6-5.4-1.2-9-1.2h-14.1V102.5z"/>
</g>
</svg>
