<?xml version="1.0" encoding="utf-8"?>
<!-- Generator: Adobe Illustrator 22.0.1, SVG Export Plug-In . SVG Version: 6.00 Build 0)  -->
<svg version="1.1" id="Layer_1" xmlns="http://www.w3.org/2000/svg" xmlns:xlink="http://www.w3.org/1999/xlink" x="0px" y="0px"
	 viewBox="0 0 864 216" style="enable-background:new 0 0 864 216;" xml:space="preserve">
<g>
	<path d="M40.9,147.3h-8.1V68.7h47.4v7.2H40.9v26.7h36.6v7.2H40.9V147.3z"/>
	<path d="M102.7,147.3h-8.1V68.7h8.1V147.3z"/>
	<path d="M180.7,135.3L180.7,135.3l0.3-66.6h8.1v78.6h-9.9l-47.1-67.2h-0.3v67.2h-8.1V68.7h9.9L180.7,135.3z"/>
	<path d="M208.9,147.3h-9.3l34.2-78.6h7.8l34.2,78.6h-9.3l-8.7-20.7h-40.2L208.9,147.3z M220.6,119.4h34.2L237.7,78L220.6,119.4z"/>
	<path d="M294.4,140.1H331v7.2h-44.7V68.7h8.1V140.1z"/>
	<path d="M371.8,68.7h26.1c4.8,0,9.9,0.9,14.7,2.4c4.8,1.5,9.3,4.2,13.2,7.5c3.9,3.3,7.2,7.5,9.6,12.3c2.4,4.8,3.6,10.5,3.6,17.1
		c0,6.6-1.2,12.3-3.6,17.1c-2.4,4.8-5.7,9-9.6,12.3c-3.9,3.3-8.4,5.7-13.2,7.5c-4.8,1.5-9.9,2.4-14.7,2.4h-26.1V68.7z M379.6,140.1
		h15.6c6,0,11.1-0.9,15.6-2.7c4.5-1.8,8.1-4.2,11.1-7.2s5.1-6.3,6.6-10.2c1.5-3.9,2.1-7.8,2.1-11.7c0-4.2-0.6-8.1-2.1-11.7
		c-1.5-3.9-3.6-7.2-6.6-10.2s-6.6-5.4-11.1-7.2s-9.6-2.7-15.6-2.7h-15.6C379.6,76.5,379.6,140.1,379.6,140.1z"/>
	<path d="M463,140.1h42v7.2h-50.1V68.7h48.9v7.2H463v26.7h38.1v7.2H463V140.1z"/>
	<path d="M558.1,81.6c-3.6-5.1-8.4-7.8-15.3-7.8c-2.1,0-4.2,0.3-6,0.9c-1.8,0.6-3.9,1.5-5.4,2.7c-1.5,1.2-3,2.7-3.9,4.5
		c-0.9,1.8-1.5,3.9-1.5,6.3c0,3.6,0.9,6.3,3,8.4c2.1,2.1,4.5,3.6,7.5,4.8c3,1.2,6.3,2.4,9.6,3.3c3.3,0.9,6.9,2.4,9.6,3.9
		c3,1.8,5.4,3.9,7.5,6.6c2.1,2.7,3,6.6,3,11.1c0,3.6-0.9,6.9-2.4,9.6c-1.5,2.7-3.6,5.1-6,7.2c-2.4,1.8-5.4,3.3-8.4,4.5
		c-3,0.9-6.3,1.5-9.3,1.5c-4.8,0-9.3-0.9-13.8-2.7c-4.2-1.8-8.1-4.8-11.1-9l7.2-5.1c1.8,3,4.2,5.1,7.2,6.9c3,1.8,6.6,2.7,10.8,2.7
		c2.1,0,3.9-0.3,6-0.9c2.1-0.6,3.9-1.5,5.4-2.7c1.5-1.2,3-2.7,3.9-4.5c0.9-1.8,1.5-3.9,1.5-6c0-2.7-0.6-5.1-1.8-6.9
		c-1.2-1.8-2.7-3.3-4.5-4.5c-1.8-1.2-3.9-2.1-6.3-3c-2.4-0.9-4.8-1.5-7.5-2.4c-2.7-0.9-5.1-1.8-7.5-2.7c-2.4-0.9-4.5-2.4-6.3-3.9
		c-1.8-1.5-3.3-3.6-4.5-6c-1.2-2.4-1.8-5.4-1.8-9c0-3.9,0.6-7.2,2.1-9.9s3.3-5.1,5.7-6.9c2.4-1.8,5.1-3.3,8.1-4.2
		c3-0.9,6-1.2,9.3-1.2c4.5,0,8.4,0.6,12,2.1c3.6,1.5,6.9,3.9,10.2,7.5L558.1,81.6z"/>
	<path d="M590.5,147.3h-8.1V68.7h8.1V147.3z"/>
	<path d="M670,83.1c-2.7-2.7-5.7-5.1-9.6-6.6c-3.6-1.5-8.1-2.4-12.9-2.4c-5.1,0-9.6,0.9-13.5,2.7s-7.5,4.2-10.2,7.5
		c-2.7,3-4.8,6.6-6.3,10.8c-1.5,4.2-2.1,8.4-2.1,12.9s0.6,8.7,2.1,12.9c1.5,4.2,3.6,7.8,6.3,10.8c2.7,3,6.3,5.7,10.2,7.5
		c3.9,1.8,8.4,2.7,13.5,2.7c4.2,0,8.1-0.6,11.7-1.5c3.6-0.9,7.2-2.4,9.9-4.2v-26.4h-18.9v-7.2h26.7V141c-4.5,2.7-9.3,4.5-14.7,6
		s-10.2,2.1-15,2.1c-5.7,0-11.4-0.9-16.2-3c-5.1-2.1-9.3-4.8-12.9-8.7c-3.6-3.6-6.6-8.1-8.7-12.9c-2.1-5.1-3-10.5-3-16.5
		s0.9-11.4,3-16.5c2.1-5.1,4.8-9.3,8.7-12.9c3.9-3.6,8.1-6.6,12.9-8.7c5.1-2.1,10.5-3,16.2-3c6.3,0,11.7,0.9,16.2,2.7
		s8.7,4.5,12.3,7.8L670,83.1z"/>
	<path d="M755.2,135.3L755.2,135.3l0.3-66.6h8.1v78.6h-9.9l-46.8-67.2h-0.3v67.2h-8.1V68.7h9.9L755.2,135.3z"/>
	<path d="M821.8,81.6c-3.6-5.1-8.4-7.8-15.3-7.8c-2.1,0-4.2,0.3-6,0.9c-1.8,0.6-3.9,1.5-5.4,2.7c-1.5,1.2-3,2.7-3.9,4.5
		c-0.9,1.8-1.5,3.9-1.5,6.3c0,3.6,0.9,6.3,3,8.4c2.1,2.1,4.5,3.6,7.5,4.8c3,1.2,6.3,2.4,9.6,3.3c3.6,0.9,6.6,2.4,9.6,3.9
		c3,1.8,5.4,3.9,7.5,6.6s3,6.6,3,11.1c0,3.6-0.9,6.9-2.4,9.6c-1.5,2.7-3.6,5.1-6,7.2c-2.4,1.8-5.4,3.3-8.4,4.5
		c-3,1.2-6.3,1.5-9.3,1.5c-4.8,0-9.3-0.9-13.8-2.7c-4.2-1.8-8.1-4.8-11.1-9l7.2-5.1c1.8,3,4.2,5.1,7.2,6.9c3,1.8,6.6,2.7,10.8,2.7
		c2.1,0,3.9-0.3,6-0.9s3.9-1.5,5.4-2.7c1.5-1.2,3-2.7,3.9-4.5c0.9-1.8,1.5-3.9,1.5-6c0-2.7-0.6-5.1-1.8-6.9
		c-1.2-1.8-2.7-3.3-4.5-4.5c-1.8-1.2-3.9-2.1-6.3-3c-2.4-0.9-4.8-1.5-7.5-2.4c-2.7-0.9-5.1-1.8-7.5-2.7c-2.4-0.9-4.5-2.4-6.3-3.9
		c-1.8-1.5-3.3-3.6-4.5-6c-1.2-2.4-1.8-5.4-1.8-9c0-3.9,0.6-7.2,2.1-9.9s3.3-5.1,5.7-6.9c2.4-1.8,5.1-3.3,8.1-4.2
		c3-0.9,6-1.2,9.3-1.2c4.5,0,8.4,0.6,12,2.1s6.9,3.9,10.2,7.5L821.8,81.6z"/>
</g>
</svg>
