<?xml version="1.0" encoding="utf-8"?>
<!-- Generator: Adobe Illustrator 22.0.1, SVG Export Plug-In . SVG Version: 6.00 Build 0)  -->
<svg version="1.1" id="Layer_1" xmlns="http://www.w3.org/2000/svg" xmlns:xlink="http://www.w3.org/1999/xlink" x="0px" y="0px"
	 viewBox="0 0 864 216" style="enable-background:new 0 0 864 216;" xml:space="preserve">
<g>
	<path d="M275.3,132.6l26.4-63.9H314v78.6h-8.1V79.5h-0.3l-28.2,67.8h-4.2l-28.5-67.8h-0.3v67.8h-8.1V68.7h12.3L275.3,132.6z"/>
	<path d="M411.8,108c0,6-0.9,11.4-3,16.5c-2.1,5.1-4.8,9.3-8.7,12.9c-3.6,3.6-8.1,6.6-12.9,8.7c-5.1,2.1-10.5,3-16.2,3
		c-5.7,0-11.4-0.9-16.2-3c-5.1-2.1-9.3-4.8-12.9-8.7c-3.6-3.6-6.6-8.1-8.7-12.9c-2.1-5.1-3-10.5-3-16.5s0.9-11.4,3-16.5
		c2.1-5.1,4.8-9.3,8.7-12.9c3.6-3.6,8.1-6.6,12.9-8.7c5.1-2.1,10.5-3,16.2-3c5.7,0,11.4,0.9,16.2,3c5.1,2.1,9.3,4.8,12.9,8.7
		c3.6,3.6,6.6,8.1,8.7,12.9C410.9,96.6,411.8,102,411.8,108z M403.4,108c0-4.5-0.6-8.7-2.1-12.9s-3.6-7.8-6.3-10.8
		c-2.7-3-6.3-5.7-10.2-7.5c-3.9-1.8-8.4-2.7-13.5-2.7s-9.6,0.9-13.5,2.7c-3.9,1.8-7.5,4.2-10.2,7.5c-2.7,3.3-4.8,6.6-6.3,10.8
		s-2.1,8.4-2.1,12.9s0.6,8.7,2.1,12.9c1.5,4.2,3.6,7.8,6.3,10.8s6.3,5.7,10.2,7.5c3.9,1.8,8.4,2.7,13.5,2.7s9.6-0.9,13.5-2.7
		c3.9-1.8,7.5-4.2,10.2-7.5c2.7-3.3,4.8-6.6,6.3-10.8C402.5,116.7,403.4,112.5,403.4,108z"/>
	<path d="M453.2,147.3h-8.1V75.9h-26.4v-7.2h60.6v7.2h-26.4v71.4H453.2z"/>
	<path d="M499.7,147.3h-8.1V68.7h8.1V147.3z"/>
	<path d="M528.8,147.3h-8.1V68.7h47.7v7.2H529v26.7h36.3v7.2h-36.6V147.3z"/>
	<path d="M619.7,81.6c-3.6-5.1-8.4-7.8-15.3-7.8c-2.1,0-4.2,0.3-6,0.9c-2.1,0.6-3.9,1.5-5.4,2.7s-3,2.7-3.9,4.5s-1.5,3.9-1.5,6.3
		c0,3.6,0.9,6.3,3,8.4c2.1,2.1,4.5,3.6,7.5,4.8c3,1.2,6.3,2.4,9.6,3.3c3.6,0.9,6.9,2.4,9.6,3.9c2.7,1.5,5.4,3.9,7.5,6.6
		c2.1,2.7,3,6.6,3,11.1c0,3.6-0.9,6.9-2.4,9.6c-1.5,2.7-3.6,5.1-6,7.2c-2.4,1.8-5.4,3.3-8.4,4.5c-3,0.9-6.3,1.5-9.3,1.5
		c-4.8,0-9.3-0.9-13.8-2.7c-4.2-1.8-8.1-4.8-11.1-9l7.2-5.1c1.8,3,4.2,5.1,7.2,6.9c3,1.8,6.6,2.7,10.8,2.7c2.1,0,3.9-0.3,6-0.9
		c2.1-0.6,3.9-1.5,5.4-2.7c1.5-1.2,3-2.7,3.9-4.5c0.9-1.8,1.5-3.9,1.5-6c0-2.7-0.6-5.1-1.8-6.9c-1.2-1.8-2.7-3.3-4.5-4.5
		c-1.8-1.2-3.9-2.1-6.3-3c-2.4-0.9-4.8-1.5-7.5-2.4c-2.7-0.9-5.1-1.8-7.5-2.7s-4.5-2.4-6.3-3.9c-1.8-1.5-3.3-3.6-4.5-6
		c-1.2-2.4-1.8-5.4-1.8-9c0-3.9,0.6-7.2,2.1-9.9s3.3-5.1,5.7-6.9s5.1-3.3,8.1-4.2s6-1.2,9.3-1.2c4.5,0,8.4,0.6,12,2.1
		c3.6,1.5,6.9,3.9,10.2,7.5L619.7,81.6z"/>
</g>
</svg>
