<?xml version="1.0" encoding="utf-8"?>
<!-- Generator: Adobe Illustrator 22.0.1, SVG Export Plug-In . SVG Version: 6.00 Build 0)  -->
<svg version="1.1" id="Layer_1" xmlns="http://www.w3.org/2000/svg" xmlns:xlink="http://www.w3.org/1999/xlink" x="0px" y="0px"
	 viewBox="0 0 288 72" style="enable-background:new 0 0 288 72;" xml:space="preserve">
<g>
	<path d="M104.6,44.1c-0.4,0.7-1,1.3-1.6,1.9c-0.7,0.6-1.4,1.1-2.2,1.5c-0.8,0.4-1.7,0.8-2.7,1s-2,0.4-3.1,0.4c-1.9,0-3.8-0.3-5.4-1
		c-1.7-0.7-3.1-1.6-4.3-2.9c-1.2-1.2-2.2-2.7-2.9-4.3c-0.7-1.7-1-3.5-1-5.5s0.3-3.8,1-5.5s1.6-3.1,2.9-4.3c1.2-1.2,2.7-2.2,4.3-2.9
		c1.7-0.7,3.5-1,5.4-1c1.6,0,3.3,0.3,4.9,1s3,1.7,4.2,3.2l-2.3,1.7c-0.3-0.4-0.6-0.8-1.1-1.3c-0.5-0.4-1-0.8-1.6-1.1
		s-1.3-0.6-1.9-0.8c-0.7-0.2-1.4-0.3-2.1-0.3c-1.7,0-3.2,0.3-4.5,0.9s-2.5,1.4-3.4,2.5c-0.9,1-1.6,2.2-2.1,3.6
		c-0.5,1.4-0.7,2.8-0.7,4.3s0.2,2.9,0.7,4.3C85.3,40.8,86,42,87,43c0.9,1,2.1,1.9,3.4,2.5s2.8,0.9,4.5,0.9c0.7,0,1.4-0.1,2.1-0.2
		c0.7-0.1,1.3-0.3,2-0.6s1.3-0.7,1.9-1.2s1.1-1.1,1.6-1.9L104.6,44.1z"/>
	<path d="M134.6,35.1c0,2-0.3,3.8-1,5.5s-1.6,3.1-2.9,4.3c-1.2,1.2-2.7,2.2-4.3,2.9c-1.7,0.7-3.5,1-5.4,1s-3.8-0.3-5.4-1
		c-1.7-0.7-3.1-1.6-4.3-2.9c-1.2-1.2-2.2-2.7-2.9-4.3c-0.7-1.7-1-3.5-1-5.5s0.3-3.8,1-5.5s1.6-3.1,2.9-4.3c1.2-1.2,2.7-2.2,4.3-2.9
		c1.7-0.7,3.5-1,5.4-1s3.8,0.3,5.4,1c1.7,0.7,3.1,1.6,4.3,2.9c1.2,1.2,2.2,2.7,2.9,4.3C134.2,31.3,134.6,33.1,134.6,35.1z
		 M131.7,35.1c0-1.5-0.2-2.9-0.7-4.3c-0.5-1.4-1.2-2.6-2.1-3.6c-0.9-1-2.1-1.9-3.4-2.5s-2.8-0.9-4.5-0.9s-3.2,0.3-4.5,0.9
		s-2.5,1.4-3.4,2.5c-0.9,1-1.6,2.2-2.1,3.6c-0.5,1.4-0.7,2.8-0.7,4.3s0.2,2.9,0.7,4.3c0.5,1.4,1.2,2.6,2.1,3.6s2.1,1.9,3.4,2.5
		s2.8,0.9,4.5,0.9s3.2-0.3,4.5-0.9c1.3-0.6,2.5-1.4,3.4-2.5c0.9-1,1.6-2.2,2.1-3.6C131.4,38.1,131.7,36.6,131.7,35.1z"/>
	<path d="M142.6,45.8h12.2v2.4h-14.9V22h2.7V45.8z"/>
	<path d="M183.9,35.1c0,2-0.3,3.8-1,5.5s-1.6,3.1-2.9,4.3c-1.2,1.2-2.7,2.2-4.3,2.9c-1.7,0.7-3.5,1-5.4,1s-3.8-0.3-5.4-1
		c-1.7-0.7-3.1-1.6-4.3-2.9c-1.2-1.2-2.2-2.7-2.9-4.3c-0.7-1.7-1-3.5-1-5.5s0.3-3.8,1-5.5s1.6-3.1,2.9-4.3c1.2-1.2,2.7-2.2,4.3-2.9
		c1.7-0.7,3.5-1,5.4-1s3.8,0.3,5.4,1c1.7,0.7,3.1,1.6,4.3,2.9c1.2,1.2,2.2,2.7,2.9,4.3C183.6,31.3,183.9,33.1,183.9,35.1z M181,35.1
		c0-1.5-0.2-2.9-0.7-4.3c-0.5-1.4-1.2-2.6-2.1-3.6c-0.9-1-2.1-1.9-3.4-2.5c-1.3-0.6-2.8-0.9-4.5-0.9s-3.2,0.3-4.5,0.9
		s-2.5,1.4-3.4,2.5c-0.9,1-1.6,2.2-2.1,3.6c-0.5,1.4-0.7,2.8-0.7,4.3s0.2,2.9,0.7,4.3c0.5,1.4,1.2,2.6,2.1,3.6
		c0.9,1,2.1,1.9,3.4,2.5c1.3,0.6,2.8,0.9,4.5,0.9s3.2-0.3,4.5-0.9c1.3-0.6,2.5-1.4,3.4-2.5c0.9-1,1.6-2.2,2.1-3.6
		C180.8,38.1,181,36.6,181,35.1z"/>
	<path d="M191.9,48.2h-2.7V22h8.1c2.7,0,4.8,0.6,6.3,1.7c1.5,1.2,2.3,2.9,2.3,5.3c0,1.8-0.6,3.4-1.7,4.6c-1.1,1.2-2.8,2-5,2.2
		l7.5,12.4h-3.3L196.2,36h-4.4L191.9,48.2L191.9,48.2z M191.9,33.6h4.7c1.2,0,2.2-0.1,3-0.4c0.8-0.2,1.5-0.6,2-1
		c0.5-0.4,0.9-0.9,1.1-1.4s0.3-1.2,0.3-1.8c0-0.6-0.1-1.2-0.3-1.8c-0.2-0.6-0.6-1-1.1-1.5c-0.5-0.4-1.2-0.7-2-1
		c-0.8-0.2-1.8-0.4-3-0.4h-4.7V33.6z"/>
</g>
</svg>
