<?xml version="1.0" encoding="utf-8"?>
<!-- Generator: Adobe Illustrator 22.0.1, SVG Export Plug-In . SVG Version: 6.00 Build 0)  -->
<svg version="1.1" id="Layer_1" xmlns="http://www.w3.org/2000/svg" xmlns:xlink="http://www.w3.org/1999/xlink" x="0px" y="0px"
	 viewBox="0 0 864 216" style="enable-background:new 0 0 864 216;" xml:space="preserve">
<g>
	<path d="M25.8,148.8h-8.4V67.2h49.2v7.5H25.8v27.7h38v7.5h-38V148.8z"/>
	<path d="M90,148.8h-8.4V67.2H90V148.8z"/>
	<path d="M171,136.4L171,136.4l0.3-69.2h8.4v81.6h-10.3L120.5,79h-0.3v69.8h-8.4V67.2h10.3L171,136.4z"/>
	<path d="M200.3,148.8h-9.7l35.5-81.6h8.1l35.5,81.6h-9.7l-9-21.5h-41.8L200.3,148.8z M212.5,119.8H248l-17.8-43L212.5,119.8z"/>
	<path d="M289.1,141.3h38v7.5h-46.4V67.2h8.4V141.3z"/>
	<path d="M369.5,67.2h27.1c5,0,10.3,0.9,15.3,2.5c5,1.6,9.7,4.4,13.7,7.8c4.1,3.4,7.5,7.8,10,12.8s3.7,10.9,3.7,17.8
		c0,6.9-1.2,12.8-3.7,17.8c-2.5,5-5.9,9.3-10,12.8c-4.1,3.4-8.7,5.9-13.7,7.8c-5,1.6-10.3,2.5-15.3,2.5h-27.1V67.2z M377.6,141.3
		h16.2c6.2,0,11.5-0.9,16.2-2.8c4.7-1.9,8.4-4.4,11.5-7.5c3.1-3.1,5.3-6.5,6.9-10.6c1.6-4.1,2.2-8.1,2.2-12.2
		c0-4.4-0.6-8.4-2.2-12.2c-1.6-4.1-3.7-7.5-6.9-10.6c-3.1-3.1-6.9-5.6-11.5-7.5c-4.7-1.9-10-2.8-16.2-2.8h-16.2
		C377.6,75.3,377.6,141.3,377.6,141.3z"/>
	<path d="M464.2,141.3h43.6v7.5h-52V67.2h50.8v7.5h-42.4v27.7h39.6v7.5h-39.6V141.3z"/>
	<path d="M563,80.6c-3.7-5.3-8.7-8.1-15.9-8.1c-2.2,0-4.4,0.3-6.2,0.9s-4.1,1.6-5.6,2.8s-3.1,2.8-4.1,4.7c-0.9,1.9-1.6,4.1-1.6,6.5
		c0,3.7,0.9,6.5,3.1,8.7c2.2,2.2,4.7,3.7,7.8,5s6.5,2.5,10,3.4c3.4,0.9,7.2,2.5,10,4.1c3.1,1.9,5.6,4.1,7.8,6.9s3.1,6.9,3.1,11.5
		c0,3.7-0.9,7.2-2.5,10c-1.6,2.8-3.7,5.3-6.2,7.5c-2.5,1.9-5.6,3.4-8.7,4.7c-3.1,0.9-6.5,1.6-9.7,1.6c-5,0-9.7-0.9-14.3-2.8
		c-4.4-1.9-8.4-5-11.5-9.3l7.5-5.3c1.9,3.1,4.4,5.3,7.5,7.2c3.1,1.9,6.9,2.8,11.2,2.8c2.2,0,4.1-0.3,6.2-0.9
		c2.2-0.6,4.1-1.6,5.6-2.8s3.1-2.8,4.1-4.7c0.9-1.9,1.6-4.1,1.6-6.2c0-2.8-0.6-5.3-1.9-7.2c-1.2-1.9-2.8-3.4-4.7-4.7
		s-4.1-2.2-6.5-3.1c-2.5-0.9-5-1.6-7.8-2.5c-2.8-0.9-5.3-1.9-7.8-2.8c-2.5-0.9-4.7-2.5-6.5-4.1c-1.9-1.6-3.4-3.7-4.7-6.2
		s-1.9-5.6-1.9-9.3c0-4.1,0.6-7.5,2.2-10.3c1.6-2.8,3.4-5.3,5.9-7.2c2.5-1.9,5.3-3.4,8.4-4.4c3.1-0.9,6.2-1.2,9.7-1.2
		c4.7,0,8.7,0.6,12.5,2.2c3.7,1.6,7.2,4.1,10.6,7.8L563,80.6z"/>
	<path d="M596.7,148.8h-8.4V67.2h8.4V148.8z"/>
	<path d="M679.2,82.1c-2.8-2.8-5.9-5.3-10-6.9c-3.7-1.6-8.4-2.5-13.4-2.5c-5.3,0-10,0.9-14,2.8c-4.1,1.9-7.8,4.4-10.6,7.8
		c-2.8,3.1-5,6.9-6.5,11.2c-1.6,4.4-2.2,8.7-2.2,13.4s0.6,9,2.2,13.4c1.6,4.4,3.7,8.1,6.5,11.2c2.8,3.1,6.5,5.9,10.6,7.8
		c4.1,1.9,8.7,2.8,14,2.8c4.4,0,8.4-0.6,12.2-1.6s7.5-2.5,10.3-4.4v-27.4h-19.6v-7.5h27.7v39.9c-4.7,2.8-9.7,4.7-15.3,6.2
		c-5.6,1.6-10.6,2.2-15.6,2.2c-5.9,0-11.8-0.9-16.8-3.1c-5.3-2.2-9.7-5-13.4-9c-3.7-3.7-6.9-8.4-9-13.4c-2.2-5.3-3.1-10.9-3.1-17.1
		c0-6.2,0.9-11.8,3.1-17.1s5-9.7,9-13.4c4.1-3.7,8.4-6.9,13.4-9c5.3-2.2,10.9-3.1,16.8-3.1c6.5,0,12.2,0.9,16.8,2.8
		c4.7,1.9,9,4.7,12.8,8.1L679.2,82.1z"/>
	<path d="M767.7,136.4L767.7,136.4l0.3-69.2h8.4v81.6h-10.3L717.6,79h-0.3v69.8h-8.4V67.2h10.3L767.7,136.4z"/>
	<path d="M836.9,80.6c-3.7-5.3-8.7-8.1-15.9-8.1c-2.2,0-4.4,0.3-6.2,0.9s-4.1,1.6-5.6,2.8s-3.1,2.8-4.1,4.7
		c-0.9,1.9-1.6,4.1-1.6,6.5c0,3.7,0.9,6.5,3.1,8.7c2.2,2.2,4.7,3.7,7.8,5c3.1,1.2,6.5,2.5,10,3.4c3.7,0.9,6.9,2.5,10,4.1
		c3.1,1.9,5.6,4.1,7.8,6.9s3.1,6.9,3.1,11.5c0,3.7-0.9,7.2-2.5,10c-1.6,2.8-3.7,5.3-6.2,7.5c-2.5,1.9-5.6,3.4-8.7,4.7
		s-6.5,1.6-9.7,1.6c-5,0-9.7-0.9-14.3-2.8c-4.4-1.9-8.4-5-11.5-9.3l7.5-5.3c1.9,3.1,4.4,5.3,7.5,7.2c3.1,1.9,6.9,2.8,11.2,2.8
		c2.2,0,4.1-0.3,6.2-0.9c2.2-0.6,4.1-1.6,5.6-2.8c1.6-1.2,3.1-2.8,4.1-4.7c0.9-1.9,1.6-4.1,1.6-6.2c0-2.8-0.6-5.3-1.9-7.2
		s-2.8-3.4-4.7-4.7s-4.1-2.2-6.5-3.1c-2.5-0.9-5-1.6-7.8-2.5c-2.8-0.9-5.3-1.9-7.8-2.8c-2.5-0.9-4.7-2.5-6.5-4.1
		c-1.9-1.6-3.4-3.7-4.7-6.2c-1.2-2.5-1.9-5.6-1.9-9.3c0-4.1,0.6-7.5,2.2-10.3c1.6-2.8,3.4-5.3,5.9-7.2c2.5-1.9,5.3-3.4,8.4-4.4
		c3.1-0.9,6.2-1.2,9.7-1.2c4.7,0,8.7,0.6,12.5,2.2c3.7,1.6,7.2,4.1,10.6,7.8L836.9,80.6z"/>
</g>
</svg>
