<?xml version="1.0" encoding="utf-8"?>
<!-- Generator: Adobe Illustrator 22.0.1, SVG Export Plug-In . SVG Version: 6.00 Build 0)  -->
<svg version="1.1" id="Layer_1" xmlns="http://www.w3.org/2000/svg" xmlns:xlink="http://www.w3.org/1999/xlink" x="0px" y="0px"
	 viewBox="0 0 864 216" style="enable-background:new 0 0 864 216;" xml:space="preserve">
<g>
	<path d="M18.8,147.8h-8.3V67.2h8.3V147.8z"/>
	<path d="M98.8,135.5L98.8,135.5l0.3-68.4h8.3v80.7H97.3L48.9,78.5h-0.3v69h-8.3V67.2h10.2L98.8,135.5z"/>
	<path d="M155.2,147.8h-8.3V74.5h-27.1v-7.4H182v7.4h-27.1v73.3H155.2z"/>
	<path d="M202.9,147.8h-8.3V67.2h24.9c8.3,0,14.8,1.8,19.4,5.2c4.6,3.7,7.1,8.9,7.1,16.3c0,5.5-1.8,10.5-5.2,14.2
		c-3.4,3.7-8.6,6.2-15.4,6.8l23.1,38.2h-10.2l-22.2-37.6h-13.2V147.8z M202.9,102.9h14.5c3.7,0,6.8-0.3,9.2-1.2
		c2.5-0.6,4.6-1.8,6.2-3.1s2.8-2.8,3.4-4.3c0.6-1.8,0.9-3.7,0.9-5.5s-0.3-3.7-0.9-5.5c-0.6-1.8-1.8-3.1-3.4-4.6
		c-1.5-1.2-3.7-2.2-6.2-3.1c-2.5-0.6-5.5-1.2-9.2-1.2h-14.5V102.9z"/>
	<path d="M340.9,107.5c0,6.2-0.9,11.7-3.1,16.9c-2.2,5.2-4.9,9.5-8.9,13.2c-3.7,3.7-8.3,6.8-13.2,8.9c-5.2,2.2-10.8,3.1-16.6,3.1
		s-11.7-0.9-16.6-3.1c-5.2-2.2-9.5-4.9-13.2-8.9c-3.7-3.7-6.8-8.3-8.9-13.2c-2.2-5.2-3.1-10.8-3.1-16.9c0-6.2,0.9-11.7,3.1-16.9
		c2.2-5.2,4.9-9.5,8.9-13.2c3.7-3.7,8.3-6.8,13.2-8.9c5.2-2.2,10.8-3.1,16.6-3.1s11.7,0.9,16.6,3.1c5.2,2.2,9.5,4.9,13.2,8.9
		c3.7,3.7,6.8,8.3,8.9,13.2C339.6,95.5,340.9,101.3,340.9,107.5z M331.9,107.5c0-4.6-0.6-8.9-2.2-13.2c-1.5-4.3-3.7-8-6.5-11.1
		c-2.8-3.1-6.5-5.9-10.5-7.7c-4-1.8-8.6-2.8-13.9-2.8s-9.9,0.9-13.9,2.8c-4,1.8-7.7,4.3-10.5,7.7c-2.8,3.1-4.9,6.8-6.5,11.1
		c-1.5,4.3-2.2,8.6-2.2,13.2c0,4.6,0.6,8.9,2.2,13.2c1.5,4.3,3.7,8,6.5,11.1c2.8,3.1,6.5,5.9,10.5,7.7c4,1.8,8.6,2.8,13.9,2.8
		s9.9-0.9,13.9-2.8c4-1.8,7.7-4.3,10.5-7.7c2.8-3.1,4.9-6.8,6.5-11.1C331,116.4,331.9,112.1,331.9,107.5z"/>
	<path d="M356,67.2h26.8c4.9,0,10.2,0.9,15.1,2.5c4.9,1.5,9.5,4.3,13.5,7.7c4,3.4,7.4,7.7,9.9,12.6c2.5,4.9,3.7,10.8,3.7,17.6
		c0,6.8-1.2,12.6-3.7,17.6c-2.5,4.9-5.9,9.2-9.9,12.6s-8.6,5.9-13.5,7.7c-4.9,1.5-10.2,2.5-15.1,2.5H356
		C356,147.8,356,67.2,356,67.2z M364.3,140.1h16c6.2,0,11.4-0.9,16-2.8c4.6-1.8,8.3-4.3,11.4-7.4c3.1-3.1,5.2-6.5,6.8-10.5
		c1.5-4,2.2-8,2.2-12c0-4.3-0.6-8.3-2.2-12c-1.5-4-3.7-7.4-6.8-10.5c-3.1-3.1-6.8-5.5-11.4-7.4c-4.6-1.8-9.9-2.8-16-2.8h-16
		C364.3,74.9,364.3,140.1,364.3,140.1z"/>
	<path d="M499.2,117.7c0,3.4-0.3,6.8-1.2,10.8c-0.9,3.7-2.2,7.1-4.6,10.5c-2.2,3.1-5.2,5.9-8.9,8s-8.6,3.1-14.8,3.1
		c-6.2,0-11.1-0.9-14.8-3.1s-6.8-4.6-8.9-8c-2.2-3.1-3.7-6.8-4.6-10.5c-0.9-3.7-1.2-7.4-1.2-10.8V67.2h8.3v49.6c0,4,0.3,7.1,1.2,9.9
		c0.6,2.8,1.8,5.2,3.1,7.1c1.2,1.8,2.8,3.4,4.3,4.6c1.5,1.2,3.1,1.8,4.6,2.5c1.5,0.6,3.1,0.9,4.6,1.2c1.5,0.3,2.8,0.3,3.7,0.3
		c0.9,0,2.2,0,3.7-0.3c1.5-0.3,3.1-0.6,4.6-1.2c1.5-0.6,3.1-1.5,4.6-2.5c1.5-1.2,3.1-2.5,4.3-4.6c1.2-1.8,2.2-4.3,3.1-7.1
		c0.6-2.8,1.2-6.2,1.2-9.9V67.2h8.3v50.5H499.2z"/>
	<path d="M586.3,134.9c-1.2,2.2-3.1,4-4.9,5.9c-2.2,1.8-4.3,3.4-6.8,4.6s-5.2,2.5-8.3,3.1c-3.1,0.6-6.2,1.2-9.5,1.2
		c-5.9,0-11.7-0.9-16.6-3.1c-5.2-2.2-9.5-4.9-13.2-8.9c-3.7-3.7-6.8-8.3-8.9-13.2c-2.2-5.2-3.1-10.8-3.1-16.9s0.9-11.7,3.1-16.9
		c2.2-5.2,4.9-9.5,8.9-13.2c3.7-3.7,8.3-6.8,13.2-8.9c5.2-2.2,10.8-3.1,16.6-3.1c4.9,0,10.2,0.9,15.1,3.1c4.9,1.8,9.2,5.2,12.9,9.9
		l-7.1,5.2c-0.9-1.2-1.8-2.5-3.4-4c-1.5-1.2-3.1-2.5-4.9-3.4c-1.8-0.9-4-1.8-5.9-2.5c-2.2-0.6-4.3-0.9-6.5-0.9
		c-5.2,0-9.9,0.9-13.9,2.8s-7.7,4.3-10.5,7.7c-2.8,3.1-4.9,6.8-6.5,11.1c-1.5,4.3-2.2,8.6-2.2,13.2s0.6,8.9,2.2,13.2
		c1.5,4.3,3.7,8,6.5,11.1s6.5,5.9,10.5,7.7c4,1.8,8.6,2.8,13.9,2.8c2.2,0,4.3-0.3,6.5-0.6c2.2-0.3,4-0.9,6.2-1.8
		c2.2-0.9,4-2.2,5.9-3.7c1.8-1.5,3.4-3.4,4.9-5.9L586.3,134.9z"/>
	<path d="M625.7,147.8h-8.3V74.5h-27.1v-7.4h62.2v7.4h-27.1v73.3H625.7z"/>
	<path d="M673.4,147.8h-8.3V67.2h8.3V147.8z"/>
	<path d="M774.1,107.5c0,6.2-0.9,11.7-3.1,16.9c-2.2,5.2-4.9,9.5-8.9,13.2c-3.7,3.7-8.3,6.8-13.2,8.9c-5.2,2.2-10.8,3.1-16.6,3.1
		c-5.9,0-11.7-0.9-16.6-3.1c-5.2-2.2-9.5-4.9-13.2-8.9c-3.7-3.7-6.8-8.3-8.9-13.2c-2.2-5.2-3.1-10.8-3.1-16.9
		c0-6.2,0.9-11.7,3.1-16.9c2.2-5.2,4.9-9.5,8.9-13.2c3.7-3.7,8.3-6.8,13.2-8.9c5.2-2.2,10.8-3.1,16.6-3.1c5.9,0,11.7,0.9,16.6,3.1
		c5.2,2.2,9.5,4.9,13.2,8.9c3.7,3.7,6.8,8.3,8.9,13.2C772.9,95.5,774.1,101.3,774.1,107.5z M765.2,107.5c0-4.6-0.6-8.9-2.2-13.2
		c-1.5-4.3-3.7-8-6.5-11.1c-2.8-3.1-6.5-5.9-10.5-7.7c-4-1.8-8.6-2.8-13.9-2.8s-9.9,0.9-13.9,2.8c-4,1.8-7.7,4.3-10.5,7.7
		c-2.8,3.1-4.9,6.8-6.5,11.1c-1.5,4.3-2.2,8.6-2.2,13.2c0,4.6,0.6,8.9,2.2,13.2c1.5,4.3,3.7,8,6.5,11.1c2.8,3.1,6.5,5.9,10.5,7.7
		c4,1.8,8.6,2.8,13.9,2.8s9.9-0.9,13.9-2.8c4-1.8,7.7-4.3,10.5-7.7c2.8-3.1,4.9-6.8,6.5-11.1C764.3,116.4,765.2,112.1,765.2,107.5z"
		/>
	<path d="M849,135.5L849,135.5l0.3-68.4h8.3v80.7h-10.2l-48-69h-0.3v69h-8.3V67.2h10.2L849,135.5z"/>
</g>
</svg>
