<?xml version="1.0" encoding="utf-8"?>
<!-- Generator: Adobe Illustrator 22.0.1, SVG Export Plug-In . SVG Version: 6.00 Build 0)  -->
<svg version="1.1" id="Layer_1" xmlns="http://www.w3.org/2000/svg" xmlns:xlink="http://www.w3.org/1999/xlink" x="0px" y="0px"
	 viewBox="0 0 103.7 83.6" style="enable-background:new 0 0 103.7 83.6;" xml:space="preserve">
<g>
	<path d="M51.8,45.2c-1-0.9-1.7-2-2.2-3.3c-0.5-1.3-0.8-2.8-0.8-4.6c0-2.1,0.4-3.9,1.2-5.4c0.8-1.5,1.9-2.8,3.3-3.9
		c1.3-1,2.8-1.7,4.4-2.3c-0.5-0.7-1.1-1.4-1.8-2c-1.5-1.4-3.4-2.4-5.5-3c-2.1-0.6-4.4-1-6.9-1h-9.7v33.5h9.7c2.5,0,4.8-0.3,6.9-1
		s3.9-1.6,5.5-3c0.4-0.3,0.8-0.7,1.1-1.1c-0.6-0.3-1.2-0.5-1.8-0.8C53.9,46.9,52.7,46.2,51.8,45.2z"/>
	<path d="M57.1,31.4c-0.9,0.6-1.6,1.3-2.1,2.2s-0.8,2-0.8,3.3c0,1,0.2,1.8,0.5,2.6s0.8,1.4,1.5,2c0.7,0.6,1.6,1.2,2.8,1.7
		c0.3,0.1,0.5,0.2,0.8,0.3c0.7-2,1.1-4.3,1.1-6.9c0-2.5-0.3-4.6-0.9-6.5C58.8,30.5,57.9,30.9,57.1,31.4z"/>
	<path d="M51.1,9.9C25-0.5,4,9.9,4,9.9v65.6c0,0,21-10.4,47.1,0s49.3,0,49.3,0V9.9C100.5,9.9,77.2,20.3,51.1,9.9z M74.8,63.2
		c-0.8,1.6-2,2.9-3.4,3.9c-1.4,1-3,1.8-4.8,2.3c-1.8,0.5-3.7,0.8-5.6,0.8c-1.3,0-2.5-0.1-3.8-0.3c-1.3-0.2-2.5-0.6-3.6-1
		c-1.2-0.5-2.2-1.1-3.2-1.8c-1-0.7-1.9-1.7-2.6-2.8l4.4-3.6c0.9,1.6,2.2,2.8,3.9,3.6s3.4,1.2,5.3,1.2c1.1,0,2.2-0.2,3.3-0.5
		c1.1-0.3,2.1-0.8,3-1.4c0.9-0.6,1.6-1.4,2.2-2.3c0.6-0.9,0.8-2,0.8-3.2c0-1.3-0.2-2.4-0.7-3.2c-0.4-0.8-1.1-1.5-2.1-2.2
		c-0.9-0.6-2.1-1.2-3.5-1.6c-0.7-0.2-1.5-0.5-2.3-0.8c-0.9,1.2-2,2.3-3.2,3.2c-1.4,1.1-2.9,2.1-4.5,2.8c-1.6,0.7-3.1,1.2-4.7,1.5
		c-1.6,0.3-3.1,0.5-4.5,0.5H28.7v-43h16.5c1.4,0,2.9,0.2,4.5,0.5c1.6,0.3,3.1,0.8,4.7,1.5c1.6,0.7,3.1,1.6,4.5,2.8
		c1.4,1.1,2.7,2.5,3.8,4.1c0.2,0.3,0.4,0.6,0.6,0.9c0,0,0,0,0.1,0c2.4,0,4.6,0.4,6.6,1.1c2,0.8,3.8,2.1,5.4,3.9l-4.2,3.6
		c-0.8-1.4-2-2.4-3.4-3c-0.8-0.3-1.6-0.6-2.4-0.7c0.6,2,0.9,4.2,0.9,6.7c0,2.6-0.3,5-1,7.1c-0.2,0.6-0.4,1.1-0.6,1.6
		c1.1,0.4,2.2,0.8,3.3,1.2c1.6,0.6,2.9,1.4,4.1,2.3c1.2,0.9,2.1,2.1,2.9,3.5c0.7,1.4,1.1,3.1,1.1,5.3C76.1,59.7,75.7,61.6,74.8,63.2
		z"/>
</g>
</svg>
