<?xml version="1.0" encoding="utf-8"?>
<!-- Generator: Adobe Illustrator 22.0.1, SVG Export Plug-In . SVG Version: 6.00 Build 0)  -->
<svg version="1.1" id="Layer_1" xmlns="http://www.w3.org/2000/svg" xmlns:xlink="http://www.w3.org/1999/xlink" x="0px" y="0px"
	 viewBox="0 0 288 72" style="enable-background:new 0 0 288 72;" xml:space="preserve">
<g>
	<path d="M91.3,44.2l8.8-21.3h4.1v26.2h-2.7V26.5h-0.1L92,49.1h-1.4l-9.5-22.6H81v22.6h-2.7V22.9h4.1L91.3,44.2z"/>
	<path d="M136.8,36c0,2-0.3,3.8-1,5.5c-0.7,1.7-1.6,3.1-2.9,4.3c-1.2,1.2-2.7,2.2-4.3,2.9c-1.7,0.7-3.5,1-5.4,1
		c-1.9,0-3.8-0.3-5.4-1c-1.7-0.7-3.1-1.6-4.3-2.9c-1.2-1.2-2.2-2.7-2.9-4.3c-0.7-1.7-1-3.5-1-5.5s0.3-3.8,1-5.5s1.6-3.1,2.9-4.3
		c1.2-1.2,2.7-2.2,4.3-2.9c1.7-0.7,3.5-1,5.4-1c1.9,0,3.8,0.3,5.4,1c1.7,0.7,3.1,1.6,4.3,2.9c1.2,1.2,2.2,2.7,2.9,4.3
		C136.5,32.2,136.8,34,136.8,36z M134,36c0-1.5-0.2-2.9-0.7-4.3c-0.5-1.4-1.2-2.6-2.1-3.6s-2.1-1.9-3.4-2.5
		c-1.3-0.6-2.8-0.9-4.5-0.9c-1.7,0-3.2,0.3-4.5,0.9c-1.3,0.6-2.5,1.4-3.4,2.5s-1.6,2.2-2.1,3.6s-0.7,2.8-0.7,4.3
		c0,1.5,0.2,2.9,0.7,4.3s1.2,2.6,2.1,3.6s2.1,1.9,3.4,2.5c1.3,0.6,2.8,0.9,4.5,0.9c1.7,0,3.2-0.3,4.5-0.9c1.3-0.6,2.5-1.4,3.4-2.5
		s1.6-2.2,2.1-3.6C133.7,38.9,134,37.5,134,36z"/>
	<path d="M150.6,49.1h-2.7V25.3h-8.8v-2.4h20.2v2.4h-8.8V49.1z"/>
	<path d="M166.1,49.1h-2.7V22.9h2.7V49.1z"/>
	<path d="M175.8,49.1h-2.7V22.9H189v2.4h-13.1v8.9H188v2.4h-12.2V49.1z"/>
	<path d="M206.1,27.2c-1.2-1.7-2.8-2.6-5.1-2.6c-0.7,0-1.4,0.1-2,0.3c-0.7,0.2-1.3,0.5-1.8,0.9c-0.5,0.4-1,0.9-1.3,1.5
		c-0.3,0.6-0.5,1.3-0.5,2.1c0,1.2,0.3,2.1,1,2.8c0.7,0.7,1.5,1.2,2.5,1.6c1,0.4,2.1,0.8,3.2,1.1c1.2,0.3,2.3,0.8,3.2,1.3
		s1.8,1.3,2.5,2.2c0.7,0.9,1,2.2,1,3.7c0,1.2-0.3,2.3-0.8,3.2c-0.5,0.9-1.2,1.7-2,2.4c-0.8,0.6-1.8,1.1-2.8,1.5
		c-1,0.3-2.1,0.5-3.1,0.5c-1.6,0-3.1-0.3-4.6-0.9c-1.4-0.6-2.7-1.6-3.7-3l2.4-1.7c0.6,1,1.4,1.7,2.4,2.3c1,0.6,2.2,0.9,3.6,0.9
		c0.7,0,1.3-0.1,2-0.3c0.7-0.2,1.3-0.5,1.8-0.9c0.5-0.4,1-0.9,1.3-1.5c0.3-0.6,0.5-1.3,0.5-2c0-0.9-0.2-1.7-0.6-2.3
		c-0.4-0.6-0.9-1.1-1.5-1.5c-0.6-0.4-1.3-0.7-2.1-1s-1.6-0.5-2.5-0.8c-0.9-0.3-1.7-0.6-2.5-0.9s-1.5-0.8-2.1-1.3s-1.1-1.2-1.5-2
		s-0.6-1.8-0.6-3c0-1.3,0.2-2.4,0.7-3.3c0.5-0.9,1.1-1.7,1.9-2.3c0.8-0.6,1.7-1.1,2.7-1.4c1-0.3,2-0.4,3.1-0.4c1.5,0,2.8,0.2,4,0.7
		c1.2,0.5,2.3,1.3,3.4,2.5L206.1,27.2z"/>
</g>
</svg>
